<?xml version="1.0" encoding="utf-8"?>
<svg viewBox="0 0 554.803 553.153" xmlns="http://www.w3.org/2000/svg" xmlns:xlink="http://www.w3.org/1999/xlink">
  <g transform="matrix(1, 0, 0, 1, -72.598734, -3.299938)">
    <path d="m605.08 478.12-133.7-133.7c-15.449 22.223-34.738 41.516-56.965 56.965l133.7 133.7c7.5508 7.5664 17.801 11.82 28.492 11.824 10.688 0.007813 20.945-4.2383 28.504-11.797 7.5586-7.5586 11.805-17.812 11.797-28.504-0.003906-10.691-4.2578-20.941-11.824-28.492z"/>
    <path d="m118.42 388.28 0.34766-0.52344c-0.42188-0.12891-0.83203-0.24609-1.2539-0.37891 0.29297 0.30469 0.60156 0.60938 0.90625 0.90234z"/>
    <path d="m490.9 217.02c0.003906-40.328-11.949-79.75-34.355-113.29-22.402-33.531-54.246-59.668-91.504-75.102-37.258-15.434-78.258-19.469-117.81-11.602-39.555 7.8711-75.887 27.293-104.4 55.812-38.238 38.238-59.719 90.098-59.719 144.18 0.003906 54.074 21.484 105.94 59.723 144.18 38.238 38.234 90.102 59.715 144.18 59.715 54.078 0 105.94-21.484 144.18-59.723 18.992-18.887 34.047-41.355 44.297-66.102 10.246-24.746 15.488-51.281 15.414-78.066zm-319.59 115.68c-30.684-30.684-47.918-72.301-47.918-115.69 0-43.395 17.238-85.008 47.922-115.69 30.684-30.684 72.301-47.922 115.69-47.922 43.395 0 85.008 17.238 115.69 47.922 30.684 30.684 47.922 72.297 47.926 115.69 0 43.391-17.234 85.008-47.918 115.69-30.707 30.641-72.316 47.848-115.7 47.848-43.379 0-84.988-17.207-115.7-47.848z"/>
    <path d="m351.76 137.23-84.949 12.238c-5.5703 0.80469-9.7031 5.5703-9.7148 11.195l-0.085937 92.973c-5.1953-2.4102-10.855-3.6445-16.582-3.6094-17.18 0-31.098 10.5-31.098 23.453 0 12.945 13.918 23.453 31.098 23.453 17.18 0 31.098-10.508 31.098-23.453 0-0.085937-0.007813-0.17188-0.007813-0.25391h0.007813v-79.129l78.648-12.984-0.003906 58.473c-5.1875-2.418-10.848-3.6562-16.574-3.6172-17.18 0-31.098 10.5-31.098 23.453s13.918 23.453 31.098 23.453c17.168 0 31.098-10.5 31.098-23.453v-2.0039l0.007813-108.98h0.003906c0-3.2852-1.4297-6.4102-3.9141-8.5625-2.4844-2.1484-5.7812-3.1133-9.0312-2.6445z"/>
    <use transform="matrix(1, 0, 0, 1, 70, 625.625)" xlink:href="#w"/>
    <use transform="matrix(1, 0, 0, 1, 86.0546875, 625.625)" xlink:href="#c"/>
    <use transform="matrix(1, 0, 0, 1, 96.83984375, 625.625)" xlink:href="#b"/>
    <use transform="matrix(1, 0, 0, 1, 111.6796875, 625.625)" xlink:href="#a"/>
    <use transform="matrix(1, 0, 0, 1, 126.4375, 625.625)" xlink:href="#f"/>
    <use transform="matrix(1, 0, 0, 1, 136.89453125, 625.625)" xlink:href="#b"/>
    <use transform="matrix(1, 0, 0, 1, 151.73046875, 625.625)" xlink:href="#n"/>
    <use transform="matrix(1, 0, 0, 1, 175.0078125, 625.625)" xlink:href="#m"/>
    <use transform="matrix(1, 0, 0, 1, 190.6640625, 625.625)" xlink:href="#l"/>
    <use transform="matrix(1, 0, 0, 1, 212.5390625, 625.625)" xlink:href="#k"/>
    <use transform="matrix(1, 0, 0, 1, 220.6796875, 625.625)" xlink:href="#j"/>
    <use transform="matrix(1, 0, 0, 1, 236.25390625, 625.625)" xlink:href="#i"/>
    <use transform="matrix(1, 0, 0, 1, 243.75, 625.625)" xlink:href="#a"/>
    <use transform="matrix(1, 0, 0, 1, 258.51171875, 625.625)" xlink:href="#e"/>
    <use transform="matrix(1, 0, 0, 1, 281.3046875, 625.625)" xlink:href="#a"/>
    <use transform="matrix(1, 0, 0, 1, 296.06640625, 625.625)" xlink:href="#e"/>
    <use transform="matrix(1, 0, 0, 1, 318.859375, 625.625)" xlink:href="#h"/>
    <use transform="matrix(1, 0, 0, 1, 334.43359375, 625.625)" xlink:href="#v"/>
    <use transform="matrix(1, 0, 0, 1, 349.546875, 625.625)" xlink:href="#g"/>
    <use transform="matrix(1, 0, 0, 1, 365.12109375, 625.625)" xlink:href="#d"/>
    <use transform="matrix(1, 0, 0, 1, 380.1484375, 625.625)" xlink:href="#u"/>
    <use transform="matrix(1, 0, 0, 1, 403.421875, 625.625)" xlink:href="#e"/>
    <use transform="matrix(1, 0, 0, 1, 426.21484375, 625.625)" xlink:href="#t"/>
    <use transform="matrix(1, 0, 0, 1, 433.71484375, 625.625)" xlink:href="#c"/>
    <use transform="matrix(1, 0, 0, 1, 444.50390625, 625.625)" xlink:href="#a"/>
    <use transform="matrix(1, 0, 0, 1, 459.265625, 625.625)" xlink:href="#s"/>
    <use transform="matrix(1, 0, 0, 1, 70, 647.5)" xlink:href="#r"/>
    <use transform="matrix(1, 0, 0, 1, 79.515625, 647.5)" xlink:href="#c"/>
    <use transform="matrix(1, 0, 0, 1, 90.3046875, 647.5)" xlink:href="#d"/>
    <use transform="matrix(1, 0, 0, 1, 105.33203125, 647.5)" xlink:href="#e"/>
    <use transform="matrix(1, 0, 0, 1, 135.7421875, 647.5)" xlink:href="#f"/>
    <use transform="matrix(1, 0, 0, 1, 146.19921875, 647.5)" xlink:href="#g"/>
    <use transform="matrix(1, 0, 0, 1, 161.7734375, 647.5)" xlink:href="#b"/>
    <use transform="matrix(1, 0, 0, 1, 184.22265625, 647.5)" xlink:href="#q"/>
    <use transform="matrix(1, 0, 0, 1, 202.53125, 647.5)" xlink:href="#d"/>
    <use transform="matrix(1, 0, 0, 1, 217.55859375, 647.5)" xlink:href="#h"/>
    <use transform="matrix(1, 0, 0, 1, 233.1328125, 647.5)" xlink:href="#j"/>
    <use transform="matrix(1, 0, 0, 1, 256.3203125, 647.5)" xlink:href="#p"/>
    <use transform="matrix(1, 0, 0, 1, 272.35546875, 647.5)" xlink:href="#c"/>
    <use transform="matrix(1, 0, 0, 1, 283.140625, 647.5)" xlink:href="#d"/>
    <use transform="matrix(1, 0, 0, 1, 298.171875, 647.5)" xlink:href="#i"/>
    <use transform="matrix(1, 0, 0, 1, 305.66796875, 647.5)" xlink:href="#b"/>
    <use transform="matrix(1, 0, 0, 1, 320.50390625, 647.5)" xlink:href="#o"/>
    <use transform="matrix(1, 0, 0, 1, 333.47265625, 647.5)" xlink:href="#f"/>
  </g>
</svg>